<?xml version="1.0" encoding="UTF-8" standalone="no"?>
<!DOCTYPE svg PUBLIC "-//W3C//DTD SVG 1.1//EN"
 "http://www.w3.org/Graphics/SVG/1.1/DTD/svg11.dtd">
<!-- Generated by graphviz version 6.0.1 (20220911.1526)
 -->
<!-- Pages: 1 -->
<svg width="1134pt" height="404pt"
 viewBox="0.00 0.00 1134.25 404.00" xmlns="http://www.w3.org/2000/svg" xmlns:xlink="http://www.w3.org/1999/xlink">
<g id="graph0" class="graph" transform="scale(1 1) rotate(0) translate(4 400)">
<polygon fill="white" stroke="none" points="-4,4 -4,-400 1130.25,-400 1130.25,4 -4,4"/>
<!-- [root] azurerm_resource_group.tfstate (expand) -->
<g id="node1" class="node">
<title>[root] azurerm_resource_group.tfstate (expand)</title>
<polygon fill="none" stroke="black" points="425.59,-108 231.59,-108 231.59,-72 425.59,-72 425.59,-108"/>
<text text-anchor="middle" x="328.59" y="-86.3" font-family="Times New Roman,serif" font-size="14.00">azurerm_resource_group.tfstate</text>
</g>
<!-- [root] provider[&quot;registry.terraform.io/hashicorp/azurerm&quot;] -->
<g id="node4" class="node">
<title>[root] provider[&quot;registry.terraform.io/hashicorp/azurerm&quot;]</title>
<polygon fill="none" stroke="black" points="277.59,-36 -0.09,-18 277.59,0 555.26,-18 277.59,-36"/>
<text text-anchor="middle" x="277.59" y="-14.3" font-family="Times New Roman,serif" font-size="14.00">provider[&quot;registry.terraform.io/hashicorp/azurerm&quot;]</text>
</g>
<!-- [root] azurerm_resource_group.tfstate (expand)&#45;&gt;[root] provider[&quot;registry.terraform.io/hashicorp/azurerm&quot;] -->
<g id="edge1" class="edge">
<title>[root] azurerm_resource_group.tfstate (expand)&#45;&gt;[root] provider[&quot;registry.terraform.io/hashicorp/azurerm&quot;]</title>
<path fill="none" stroke="black" d="M315.98,-71.7C309.84,-63.27 302.34,-52.97 295.6,-43.73"/>
<polygon fill="black" stroke="black" points="298.41,-41.64 289.7,-35.62 292.76,-45.77 298.41,-41.64"/>
</g>
<!-- [root] azurerm_storage_account.tfstate (expand) -->
<g id="node2" class="node">
<title>[root] azurerm_storage_account.tfstate (expand)</title>
<polygon fill="none" stroke="black" points="529.59,-180 331.59,-180 331.59,-144 529.59,-144 529.59,-180"/>
<text text-anchor="middle" x="430.59" y="-158.3" font-family="Times New Roman,serif" font-size="14.00">azurerm_storage_account.tfstate</text>
</g>
<!-- [root] azurerm_storage_account.tfstate (expand)&#45;&gt;[root] azurerm_resource_group.tfstate (expand) -->
<g id="edge2" class="edge">
<title>[root] azurerm_storage_account.tfstate (expand)&#45;&gt;[root] azurerm_resource_group.tfstate (expand)</title>
<path fill="none" stroke="black" d="M405.63,-143.88C392.54,-134.89 376.33,-123.76 362.15,-114.03"/>
<polygon fill="black" stroke="black" points="363.86,-110.96 353.63,-108.19 359.9,-116.73 363.86,-110.96"/>
</g>
<!-- [root] random_string.resource_code (expand) -->
<g id="node6" class="node">
<title>[root] random_string.resource_code (expand)</title>
<polygon fill="none" stroke="black" points="890.09,-108 705.09,-108 705.09,-72 890.09,-72 890.09,-108"/>
<text text-anchor="middle" x="797.59" y="-86.3" font-family="Times New Roman,serif" font-size="14.00">random_string.resource_code</text>
</g>
<!-- [root] azurerm_storage_account.tfstate (expand)&#45;&gt;[root] random_string.resource_code (expand) -->
<g id="edge3" class="edge">
<title>[root] azurerm_storage_account.tfstate (expand)&#45;&gt;[root] random_string.resource_code (expand)</title>
<path fill="none" stroke="black" d="M519.89,-143.97C573.84,-133.68 642.68,-120.55 698.32,-109.93"/>
<polygon fill="black" stroke="black" points="699.03,-113.36 708.19,-108.05 697.72,-106.49 699.03,-113.36"/>
</g>
<!-- [root] azurerm_storage_container.tfstate (expand) -->
<g id="node3" class="node">
<title>[root] azurerm_storage_container.tfstate (expand)</title>
<polygon fill="none" stroke="black" points="533.09,-252 328.09,-252 328.09,-216 533.09,-216 533.09,-252"/>
<text text-anchor="middle" x="430.59" y="-230.3" font-family="Times New Roman,serif" font-size="14.00">azurerm_storage_container.tfstate</text>
</g>
<!-- [root] azurerm_storage_container.tfstate (expand)&#45;&gt;[root] azurerm_storage_account.tfstate (expand) -->
<g id="edge4" class="edge">
<title>[root] azurerm_storage_container.tfstate (expand)&#45;&gt;[root] azurerm_storage_account.tfstate (expand)</title>
<path fill="none" stroke="black" d="M430.59,-215.7C430.59,-207.98 430.59,-198.71 430.59,-190.11"/>
<polygon fill="black" stroke="black" points="434.09,-190.1 430.59,-180.1 427.09,-190.1 434.09,-190.1"/>
</g>
<!-- [root] provider[&quot;registry.terraform.io/hashicorp/random&quot;] -->
<g id="node5" class="node">
<title>[root] provider[&quot;registry.terraform.io/hashicorp/random&quot;]</title>
<polygon fill="none" stroke="black" points="849.59,-36 572.75,-18 849.59,0 1126.42,-18 849.59,-36"/>
<text text-anchor="middle" x="849.59" y="-14.3" font-family="Times New Roman,serif" font-size="14.00">provider[&quot;registry.terraform.io/hashicorp/random&quot;]</text>
</g>
<!-- [root] random_string.resource_code (expand)&#45;&gt;[root] provider[&quot;registry.terraform.io/hashicorp/random&quot;] -->
<g id="edge7" class="edge">
<title>[root] random_string.resource_code (expand)&#45;&gt;[root] provider[&quot;registry.terraform.io/hashicorp/random&quot;]</title>
<path fill="none" stroke="black" d="M810.44,-71.7C816.7,-63.27 824.35,-52.97 831.21,-43.73"/>
<polygon fill="black" stroke="black" points="834.08,-45.74 837.24,-35.62 828.46,-41.56 834.08,-45.74"/>
</g>
<!-- [root] provider[&quot;registry.terraform.io/hashicorp/azurerm&quot;] (close) -->
<g id="node7" class="node">
<title>[root] provider[&quot;registry.terraform.io/hashicorp/azurerm&quot;] (close)</title>
<ellipse fill="none" stroke="black" cx="476.59" cy="-306" rx="246.96" ry="18"/>
<text text-anchor="middle" x="476.59" y="-302.3" font-family="Times New Roman,serif" font-size="14.00">[root] provider[&quot;registry.terraform.io/hashicorp/azurerm&quot;] (close)</text>
</g>
<!-- [root] provider[&quot;registry.terraform.io/hashicorp/azurerm&quot;] (close)&#45;&gt;[root] azurerm_storage_container.tfstate (expand) -->
<g id="edge5" class="edge">
<title>[root] provider[&quot;registry.terraform.io/hashicorp/azurerm&quot;] (close)&#45;&gt;[root] azurerm_storage_container.tfstate (expand)</title>
<path fill="none" stroke="black" d="M465.21,-287.7C459.87,-279.56 453.38,-269.69 447.47,-260.7"/>
<polygon fill="black" stroke="black" points="450.24,-258.54 441.83,-252.1 444.39,-262.38 450.24,-258.54"/>
</g>
<!-- [root] provider[&quot;registry.terraform.io/hashicorp/random&quot;] (close) -->
<g id="node8" class="node">
<title>[root] provider[&quot;registry.terraform.io/hashicorp/random&quot;] (close)</title>
<ellipse fill="none" stroke="black" cx="797.59" cy="-234" rx="246.16" ry="18"/>
<text text-anchor="middle" x="797.59" y="-230.3" font-family="Times New Roman,serif" font-size="14.00">[root] provider[&quot;registry.terraform.io/hashicorp/random&quot;] (close)</text>
</g>
<!-- [root] provider[&quot;registry.terraform.io/hashicorp/random&quot;] (close)&#45;&gt;[root] random_string.resource_code (expand) -->
<g id="edge6" class="edge">
<title>[root] provider[&quot;registry.terraform.io/hashicorp/random&quot;] (close)&#45;&gt;[root] random_string.resource_code (expand)</title>
<path fill="none" stroke="black" d="M797.59,-215.87C797.59,-191.67 797.59,-147.21 797.59,-118.39"/>
<polygon fill="black" stroke="black" points="801.09,-118.19 797.59,-108.19 794.09,-118.19 801.09,-118.19"/>
</g>
<!-- [root] root -->
<g id="node9" class="node">
<title>[root] root</title>
<ellipse fill="none" stroke="black" cx="613.59" cy="-378" rx="49.29" ry="18"/>
<text text-anchor="middle" x="613.59" y="-374.3" font-family="Times New Roman,serif" font-size="14.00">[root] root</text>
</g>
<!-- [root] root&#45;&gt;[root] provider[&quot;registry.terraform.io/hashicorp/azurerm&quot;] (close) -->
<g id="edge8" class="edge">
<title>[root] root&#45;&gt;[root] provider[&quot;registry.terraform.io/hashicorp/azurerm&quot;] (close)</title>
<path fill="none" stroke="black" d="M586.19,-363C566.92,-353.16 540.77,-339.79 518.84,-328.59"/>
<polygon fill="black" stroke="black" points="520.23,-325.37 509.74,-323.94 517.05,-331.61 520.23,-325.37"/>
</g>
<!-- [root] root&#45;&gt;[root] provider[&quot;registry.terraform.io/hashicorp/random&quot;] (close) -->
<g id="edge9" class="edge">
<title>[root] root&#45;&gt;[root] provider[&quot;registry.terraform.io/hashicorp/random&quot;] (close)</title>
<path fill="none" stroke="black" d="M650.65,-366.1C675.62,-357.48 708.31,-343.61 732.59,-324 754.17,-306.56 772.16,-280.32 783.7,-260.84"/>
<polygon fill="black" stroke="black" points="786.74,-262.57 788.69,-252.16 780.67,-259.09 786.74,-262.57"/>
</g>
</g>
</svg>
